PathFileType	4	(X/Y/Z)	C:\Users\Basilio\Documents\Thesis Gigler\squatting_fais\c3dfiles\075\SJ_pre3\markers_experimental.trc
DataRate	CameraRate	NumFrames	NumMarkers	Units	OrigDataRate	OrigDataStartFrame	OrigNumFrames
200.000000	200.000000	4	61	mm	200.000000	1456	1664
Frame#	Time	FHD			LBHD			RBHD			C7			T10			CLAV			LSHO			LUUPA			LMUPA			LDUPA			LLEP			LMEP			LRAD			LUL			LRFIN			RSHO			RUPA1			RMUPA			RDUPA			RLEP			RMEP			RRAD			RUL			RUFIN			LASI			RASI			USACR			LSACR			RSACR			LTHI1			LTHI2			LTHI3			LTHI4			LLFC			LMFC			LTIB1			LTIB2			LTIB3			LTIB4			LLMAL			LMMAL			LHEE			LMT1			LMT2			LMT5			RTHI			RTHI2			RTHI3			RTHI4			RLFC			RMFC			RTIB1			RTIB2			RTIB3			RTIB4			RLMAL			RMMAL			RHEE			RMT1			RMT2			RMT5			
		X1	Y1	Z1	X2	Y2	Z2	X3	Y3	Z3	X4	Y4	Z4	X5	Y5	Z5	X6	Y6	Z6	X7	Y7	Z7	X8	Y8	Z8	X9	Y9	Z9	X10	Y10	Z10	X11	Y11	Z11	X12	Y12	Z12	X13	Y13	Z13	X14	Y14	Z14	X15	Y15	Z15	X16	Y16	Z16	X17	Y17	Z17	X18	Y18	Z18	X19	Y19	Z19	X20	Y20	Z20	X21	Y21	Z21	X22	Y22	Z22	X23	Y23	Z23	X24	Y24	Z24	X25	Y25	Z25	X26	Y26	Z26	X27	Y27	Z27	X28	Y28	Z28	X29	Y29	Z29	X30	Y30	Z30	X31	Y31	Z31	X32	Y32	Z32	X33	Y33	Z33	X34	Y34	Z34	X35	Y35	Z35	X36	Y36	Z36	X37	Y37	Z37	X38	Y38	Z38	X39	Y39	Z39	X40	Y40	Z40	X41	Y41	Z41	X42	Y42	Z42	X43	Y43	Z43	X44	Y44	Z44	X45	Y45	Z45	X46	Y46	Z46	X47	Y47	Z47	X48	Y48	Z48	X49	Y49	Z49	X50	Y50	Z50	X51	Y51	Z51	X52	Y52	Z52	X53	Y53	Z53	X54	Y54	Z54	X55	Y55	Z55	X56	Y56	Z56	X57	Y57	Z57	X58	Y58	Z58	X59	Y59	Z59	X60	Y60	Z60	X61	Y61	Z61	

1457	7.28	-207.9330749511719	1697.697143554688	-947.4424438476565	-358.8991699218751	1571.431884765625	-987.2801513671877	-290.4565734863282	1606.443969726563	-842.704772949219	-386.4813842773439	1463.347534179688	-939.8529052734377	-416.2204589843751	1138.089477539063	-940.6910400390627	-242.417221069336	1398.438110351563	-941.5379638671877	-286.7449340820313	1435.417236328125	-1100.87060546875	-339.1733398437501	1288.136352539063	-1264.081420898438	-306.2595214843751	1251.455200195313	-1256.778442382813	-338.9233093261719	1229.48046875	-1302.665649414063	-336.1250915527344	1146.151000976563	-1329.9091796875	-413.9881286621095	1136.076049804688	-1279.924194335938	-305.2490234375001	964.7344360351565	-1160.568359375	-265.6174011230469	928.4268188476565	-1213.964721679688	-260.5902709960938	951.0684814453127	-1118.467651367188	-281.4039916992188	1434.680419921875	-779.0548095703127	-338.6820068359376	1288.40625	-621.0516357421876	-310.5747985839844	1247.103271484375	-625.2340698242189	-348.9456176757813	1229.928588867188	-581.5173950195314	-351.1061706542969	1161.578735351563	-555.1337890625001	-425.3196105957032	1136.343505859375	-588.1739501953126	-264.5420532226563	941.277282714844	-668.0659179687501	-307.9277343750001	965.4132080078127	-726.5588989257814	-248.5381317138672	962.821472167969	-763.5333862304689	-252.7420501708985	952.798522949219	-1066.405517578125	-244.9792175292969	966.7333984375002	-816.3726196289065	-406.976776123047	1038.859985351563	-942.1673583984377	-413.6100158691407	1006.306335449219	-967.969909667969	-412.2209777832032	1009.290344238281	-911.0235595703127	-319.7583007812501	720.9877929687501	-1136.741455078125	-297.4342346191407	640.0560302734376	-1136.189575195313	-250.9090728759766	641.1184082031251	-1119.21435546875	-329.6741333007813	590.0747680664064	-1125.228881835938	-344.1948852539063	481.8626708984376	-1116.076416015625	-302.6640319824219	466.1757202148439	-999.9238891601565	-296.9891967773438	356.1509094238282	-1093.290283203125	-359.7403869628907	320.0357666015626	-1140.874267578125	-317.9486083984376	311.7603454589844	-1123.710815429688	-322.5841064453126	230.5518951416016	-1098.368530273438	-406.2213134765626	93.18365478515626	-1114.13525390625	-367.7203674316407	100.5339050292969	-1037.332397460938	-453.049041748047	49.38096618652345	-1067.052612304688	-239.4372863769532	51.97224426269533	-1078.819580078125	-247.0491027832032	55.60514450073244	-1127.134033203125	-293.1032104492188	41.57020568847657	-1175.024780273438	-321.4909057617188	780.8770141601565	-731.4588623046876	-285.7020568847657	726.0709838867189	-728.7484130859376	-254.2560577392579	729.9577636718751	-739.9904174804689	-317.3087768554688	646.1643676757814	-730.1539306640626	-335.6105957031251	491.8340454101564	-747.4171142578126	-294.8829345703126	468.8899841308595	-865.8186035156252	-296.0188903808594	335.8128662109376	-790.210144042969	-355.5661010742188	268.8241271972657	-727.1211547851564	-319.1096191406251	257.9212951660157	-755.4458007812501	-328.6806335449219	210.0943603515626	-786.7694091796877	-408.8316955566407	95.15581512451173	-741.0586547851564	-369.7162780761719	111.1890640258789	-821.2207031250002	-451.5865478515626	49.70127868652345	-799.4856567382815	-244.4407958984376	62.61338806152345	-772.0855712890627	-252.1242218017579	64.77385711669923	-730.4859619140626	-293.5082702636719	40.43450164794923	-684.1364746093751	
1458	7.285	-207.7926025390626	1697.741577148438	-947.566101074219	-358.8361511230469	1571.150634765625	-987.4504394531252	-290.3520202636719	1606.437255859375	-842.804626464844	-386.1934204101564	1463.348266601563	-939.8206787109377	-415.7665405273439	1138.005004882813	-940.5029296875002	-242.0826873779297	1398.353271484375	-941.3511352539065	-285.5491638183594	1435.126342773438	-1100.330200195313	-338.2609252929688	1287.912963867188	-1263.929809570313	-304.3109436035157	1250.922485351563	-1256.319091796875	-338.1052856445313	1229.207885742188	-1302.55029296875	-335.2298278808594	1145.982421875	-1329.75634765625	-413.0909729003907	1135.845336914063	-1279.844360351563	-304.4403076171876	964.4294433593752	-1160.404663085938	-264.9286804199219	928.1878662109377	-1213.797485351563	-259.9606933593751	950.9274902343752	-1118.243286132813	-281.2511901855469	1434.867065429688	-778.9058837890627	-338.7827148437501	1288.491333007813	-621.0101318359376	-310.6614685058594	1247.156860351563	-625.1021118164064	-349.1672058105469	1229.976440429688	-581.5560913085939	-351.3374938964844	1161.69189453125	-555.0781250000001	-425.4861145019532	1136.37109375	-588.4106445312501	-264.3627014160157	941.4447021484377	-667.6520996093751	-307.7391662597657	965.4075317382815	-726.3844604492189	-248.2627410888672	962.8440551757815	-763.3385009765626	-252.1102600097657	952.6682128906252	-1066.1142578125	-244.5337829589844	966.684020996094	-816.0191040039065	-406.3887329101564	1038.929321289063	-942.142272949219	-413.1327514648439	1006.290161132813	-967.8426513671877	-411.8156738281251	1009.253845214844	-910.9415283203127	-320.1547851562501	721.1433715820314	-1136.597534179688	-297.1370544433594	639.9143066406251	-1135.913452148438	-250.5959777832032	641.0722045898439	-1118.98388671875	-329.3081970214844	589.9801025390626	-1124.954833984375	-344.1553955078126	481.8767700195314	-1115.865600585938	-302.5607910156251	466.1153259277345	-999.7796020507815	-296.9372253417969	356.1520385742188	-1093.151000976563	-359.6288452148438	320.0517578125001	-1140.754516601563	-317.8877258300782	311.9107666015626	-1123.576171875	-323.2344360351563	230.6018829345704	-1098.831420898438	-406.2865295410157	93.25566864013673	-1114.064819335938	-367.6914062500001	100.5230560302735	-1037.285888671875	-453.0443115234376	49.38534927368165	-1066.989135742188	-239.3889770507813	51.99579238891603	-1078.81640625	-247.0308532714844	55.5854835510254	-1127.135498046875	-293.1243286132813	41.60880279541016	-1174.998901367188	-321.3497924804688	780.7908935546877	-731.2913818359376	-285.5737304687501	725.9683227539064	-728.5747070312501	-254.161361694336	729.8275146484376	-739.8316650390626	-317.3498840332032	646.0545654296876	-730.0593872070314	-335.7964782714844	491.8450927734376	-747.4693603515626	-295.1583862304688	468.7772216796876	-866.053894042969	-295.9828186035157	335.8100891113282	-790.1539306640627	-355.4307861328126	268.7077636718751	-727.1000976562501	-318.9583740234376	257.8976135253907	-755.4083862304689	-328.4866638183594	209.9863739013672	-786.6711425781252	-408.4697265625001	95.05648040771486	-740.9826049804689	-369.3106079101563	111.0730819702149	-821.0238037109377	-451.1654052734376	49.581844329834	-799.453063964844	-244.0652923583985	62.56704711914064	-771.9114990234377	-251.7414093017579	64.82461547851564	-730.2308349609376	-293.0744018554688	40.57718658447266	-683.9035034179689	
1459	7.29	-207.6778564453126	1697.775146484375	-947.6433715820315	-358.2955932617188	1571.149780273438	-987.4584960937502	-290.2530517578126	1606.576782226563	-842.7874755859377	-385.8810119628907	1463.291137695313	-939.8734130859377	-415.3045654296876	1138.039184570313	-940.271667480469	-242.4060211181641	1398.46337890625	-941.5809326171877	-285.4176025390626	1435.019409179688	-1100.334106445313	-337.6051025390626	1287.718139648438	-1263.904663085938	-303.8819885253907	1250.911865234375	-1256.207153320313	-337.4068603515626	1229.040893554688	-1302.401489257813	-333.8766479492188	1145.722534179688	-1329.564086914063	-412.1931457519532	1135.795043945313	-1279.9130859375	-303.6282348632813	964.3243408203127	-1160.15966796875	-263.9565734863282	927.8531494140627	-1213.21435546875	-258.3938903808594	950.4189453125002	-1117.684326171875	-281.0605163574219	1434.935302734375	-778.8022460937502	-338.9674377441407	1288.545043945313	-620.9478759765626	-310.8309936523438	1247.250732421875	-624.9913940429689	-349.3632507324219	1230.038940429688	-581.4845581054689	-351.5804138183594	1161.71435546875	-555.0216064453126	-425.6151123046876	1136.32666015625	-588.5281982421876	-264.2639465332032	941.472839355469	-667.4243164062501	-307.4893798828126	965.4431762695315	-726.1895141601564	-247.1599121093751	962.718933105469	-762.8238525390626	-251.6209106445313	952.6211547851565	-1065.775756835938	-244.2782135009766	966.6317138671877	-815.7918701171877	-406.0304260253907	1038.81201171875	-941.9358520507815	-412.6287536621095	1006.263793945313	-967.6824340820315	-411.4273071289064	1009.181884765625	-910.8215942382815	-319.6972961425782	721.0817260742189	-1136.272216796875	-296.8908386230469	639.9121093750001	-1135.583251953125	-250.3423156738282	641.0183715820314	-1118.707641601563	-329.0359497070313	589.9571533203126	-1124.688110351563	-343.9160461425782	481.8742065429689	-1115.608764648438	-302.4468078613282	466.0755615234376	-999.5030517578127	-296.8868103027344	356.1678771972657	-1093.011596679688	-359.5885620117188	320.1500549316407	-1140.643432617188	-317.8964233398438	311.8895263671876	-1123.371948242188	-322.4945068359376	230.5711669921876	-1098.087036132813	-406.1502380371095	93.22190856933595	-1113.993286132813	-367.6967773437501	100.4796905517578	-1037.24072265625	-453.0608825683595	49.42926025390626	-1066.9619140625	-239.3433532714844	51.95134735107423	-1078.801025390625	-247.0544433593751	55.56327438354494	-1127.150268554688	-293.2056884765626	41.64653396606446	-1174.99658203125	-321.1813659667969	780.706237792969	-731.1206054687501	-285.5679016113282	725.7907714843751	-728.3217773437501	-254.1002502441407	729.6217651367189	-739.6285400390626	-317.4038696289063	645.9356079101564	-729.9819335937501	-336.0100402832032	491.7439880371095	-747.4890136718751	-295.2208557128907	468.8555603027345	-865.9956665039065	-295.8583984375001	335.7643737792969	-790.0432128906252	-355.3782958984376	268.6430358886719	-726.9842529296876	-318.8480834960938	257.8689575195313	-755.3051757812501	-328.2825927734376	209.9383697509766	-786.5838012695315	-408.0969543457032	94.9332733154297	-740.9053955078126	-368.6643371582032	111.1835098266602	-820.811706542969	-450.7293395996095	49.40377426147462	-799.4409179687502	-243.5165557861329	62.37316513061525	-771.586608886719	-251.3747558593751	64.82053375244142	-730.0272827148439	-292.7306213378907	40.42638778686524	-683.6535644531251	
1460	7.295	-207.5623016357422	1697.808837890625	-947.7808837890627	-358.0141906738282	1570.819946289063	-987.5893554687502	-290.1463317871094	1606.7236328125	-842.7769775390627	-385.5097045898439	1463.25146484375	-939.7753906250002	-414.9891662597657	1137.884033203125	-940.0359497070315	-242.0995483398438	1398.381958007813	-941.342956542969	-284.9871215820313	1434.836303710938	-1100.130004882813	-336.8429260253907	1287.558349609375	-1263.781005859375	-303.1107482910157	1250.66064453125	-1255.842163085938	-336.5180053710938	1228.910034179688	-1302.31201171875	-333.1066589355469	1145.560668945313	-1329.464477539063	-411.4493103027345	1135.602905273438	-1279.918701171875	-303.1151123046876	964.205017089844	-1159.875366210938	-263.2041931152344	927.6646118164065	-1212.839599609375	-257.7953186035157	950.239196777344	-1117.2763671875	-280.7985229492188	1434.893676757813	-778.5734863281252	-339.0875854492188	1288.566650390625	-620.8319702148439	-310.9308166503907	1247.29931640625	-624.8294677734376	-349.5338439941407	1230.090209960938	-581.4137573242189	-351.7763671875001	1161.771484375	-554.9531860351564	-425.7273559570314	1136.353271484375	-588.5546875000001	-264.1495056152344	941.5397949218752	-667.0686035156251	-307.2633972167969	965.3778076171877	-725.9747314453126	-246.9647674560547	962.7774047851565	-762.5546875000001	-251.1519165039063	952.5889892578127	-1065.467529296875	-244.1443481445313	966.505065917969	-815.504821777344	-405.6270446777345	1038.727416992188	-941.7478027343752	-412.1002502441407	1006.294738769531	-967.5276489257815	-410.9866333007814	1009.096557617188	-910.5894165039065	-319.2037048339844	721.1542968750001	-1136.033447265625	-296.0130615234376	639.6694335937501	-1135.109008789063	-249.9729309082032	640.9323730468751	-1118.468872070313	-328.8474426269532	590.0004272460939	-1124.4892578125	-343.9280395507813	481.8960571289064	-1115.333618164063	-302.3355712890626	466.0316467285157	-999.2603149414065	-296.8243103027344	356.1773376464844	-1092.834716796875	-359.5708618164063	320.2588195800782	-1140.4658203125	-317.8279418945313	311.9014282226563	-1123.21240234375	-322.5487365722657	230.5887298583985	-1098.028442382813	-406.2336425781251	93.24916076660158	-1113.984619140625	-367.6739196777344	100.4575576782227	-1037.220458984375	-453.0594787597657	49.41751861572267	-1066.930419921875	-239.3240509033204	51.96302413940431	-1078.801513671875	-247.0107421875001	55.57477188110353	-1127.119384765625	-293.1173706054688	41.61740112304688	-1174.994140625	-321.0463256835938	780.6294555664065	-730.8784790039064	-285.5020751953126	725.6260986328126	-728.0698242187501	-254.1336669921876	729.3969116210939	-739.4302368164064	-317.5032348632813	645.8209838867189	-729.8510131835939	-336.2454528808594	491.7485351562501	-747.4891357421876	-295.7526245117188	468.7845153808595	-866.1121826171877	-295.8756103515626	335.7370605468751	-789.9824829101565	-355.3055725097657	268.4788818359376	-726.9390869140626	-318.8012695312501	257.7843627929688	-755.2445068359376	-327.9776000976563	209.8884429931641	-786.425720214844	-407.8934326171876	94.81375122070314	-740.9384765625001	-368.2321777343751	110.9625091552735	-820.7282714843752	-450.4846496582032	49.37021636962892	-799.4524536132815	-243.1812744140626	61.97570037841798	-771.2273559570315	-251.1899566650391	64.51319122314455	-729.8204345703126	-292.6463317871094	40.13306045532227	-683.4848022460939	
